<mxfile host="app.diagrams.net" modified="2024-06-12T13:13:16.806Z" agent="Mozilla/5.0 (X11; Linux x86_64) AppleWebKit/537.36 (KHTML, like Gecko) Chrome/125.0.0.0 Safari/537.36" etag="4PdVnKYUqIIpM5qQFoMn" version="24.5.3" type="github">
  <diagram name="Page-1" id="YS6_nHezA7McZxDieweo">
    <mxGraphModel dx="2284" dy="820" grid="1" gridSize="10" guides="1" tooltips="1" connect="1" arrows="1" fold="1" page="1" pageScale="1" pageWidth="850" pageHeight="1100" math="0" shadow="0">
      <root>
        <mxCell id="0" />
        <mxCell id="1" parent="0" />
        <mxCell id="MzTdHwhMegrAW5zrQK32-1" value="Actor" style="shape=umlActor;verticalLabelPosition=bottom;verticalAlign=top;html=1;outlineConnect=0;" parent="1" vertex="1">
          <mxGeometry x="60" y="270" width="30" height="60" as="geometry" />
        </mxCell>
        <mxCell id="MzTdHwhMegrAW5zrQK32-2" value="" style="endArrow=classic;startArrow=classic;html=1;rounded=0;" parent="1" edge="1">
          <mxGeometry width="50" height="50" relative="1" as="geometry">
            <mxPoint x="80" y="310" as="sourcePoint" />
            <mxPoint x="170" y="310" as="targetPoint" />
          </mxGeometry>
        </mxCell>
        <mxCell id="MzTdHwhMegrAW5zrQK32-3" value="" style="dashed=0;outlineConnect=0;html=1;align=center;labelPosition=center;verticalLabelPosition=bottom;verticalAlign=top;shape=mxgraph.webicons.github;fillColor=#f8cecc;strokeColor=#b85450;" parent="1" vertex="1">
          <mxGeometry x="380" y="150" width="90" height="70" as="geometry" />
        </mxCell>
        <mxCell id="MzTdHwhMegrAW5zrQK32-5" value="aplicação&amp;nbsp;" style="whiteSpace=wrap;html=1;aspect=fixed;" parent="1" vertex="1">
          <mxGeometry x="180" y="255" width="85" height="85" as="geometry" />
        </mxCell>
        <mxCell id="MzTdHwhMegrAW5zrQK32-7" value="Public&amp;nbsp;" style="whiteSpace=wrap;html=1;aspect=fixed;" parent="1" vertex="1">
          <mxGeometry x="377.5" y="260" width="80" height="80" as="geometry" />
        </mxCell>
        <mxCell id="MzTdHwhMegrAW5zrQK32-8" value="Relases" style="whiteSpace=wrap;html=1;aspect=fixed;" parent="1" vertex="1">
          <mxGeometry x="373" y="385" width="92" height="92" as="geometry" />
        </mxCell>
        <mxCell id="MzTdHwhMegrAW5zrQK32-10" value="" style="endArrow=classic;startArrow=classic;html=1;rounded=0;entryX=-0.029;entryY=0.45;entryDx=0;entryDy=0;entryPerimeter=0;exitX=1;exitY=0.5;exitDx=0;exitDy=0;" parent="1" target="MzTdHwhMegrAW5zrQK32-7" edge="1" source="MzTdHwhMegrAW5zrQK32-5">
          <mxGeometry width="50" height="50" relative="1" as="geometry">
            <mxPoint x="310" y="310" as="sourcePoint" />
            <mxPoint x="360" y="260" as="targetPoint" />
          </mxGeometry>
        </mxCell>
        <mxCell id="MzTdHwhMegrAW5zrQK32-12" value="" style="endArrow=classic;html=1;rounded=0;exitX=0.5;exitY=1;exitDx=0;exitDy=0;entryX=0.5;entryY=0;entryDx=0;entryDy=0;" parent="1" source="MzTdHwhMegrAW5zrQK32-7" target="MzTdHwhMegrAW5zrQK32-8" edge="1">
          <mxGeometry width="50" height="50" relative="1" as="geometry">
            <mxPoint x="120" y="510" as="sourcePoint" />
            <mxPoint x="170" y="460" as="targetPoint" />
          </mxGeometry>
        </mxCell>
        <mxCell id="MzTdHwhMegrAW5zrQK32-14" value="" style="dashed=0;outlineConnect=0;html=1;align=center;labelPosition=center;verticalLabelPosition=bottom;verticalAlign=top;shape=mxgraph.weblogos.aws_s3" parent="1" vertex="1">
          <mxGeometry x="355" y="710" width="130" height="100" as="geometry" />
        </mxCell>
        <mxCell id="MzTdHwhMegrAW5zrQK32-16" value="" style="endArrow=classic;startArrow=classic;html=1;rounded=0;entryX=0.5;entryY=1;entryDx=0;entryDy=0;" parent="1" source="MzTdHwhMegrAW5zrQK32-14" target="MzTdHwhMegrAW5zrQK32-8" edge="1">
          <mxGeometry width="50" height="50" relative="1" as="geometry">
            <mxPoint x="400" y="690" as="sourcePoint" />
            <mxPoint x="450" y="640" as="targetPoint" />
          </mxGeometry>
        </mxCell>
        <mxCell id="MzTdHwhMegrAW5zrQK32-17" value="" style="shape=parallelogram;perimeter=parallelogramPerimeter;whiteSpace=wrap;html=1;fixedSize=1;rounded=0;shadow=0;fillStyle=cross-hatch;size=-170;fillColor=#f5f5f5;fontColor=#333333;strokeColor=#666666;" parent="1" vertex="1">
          <mxGeometry x="-115" y="1430" width="720" height="590" as="geometry" />
        </mxCell>
        <mxCell id="MzTdHwhMegrAW5zrQK32-18" value="deploy" style="swimlane;fontStyle=0;childLayout=stackLayout;horizontal=1;startSize=30;horizontalStack=0;resizeParent=1;resizeParentMax=0;resizeLast=0;collapsible=1;marginBottom=0;whiteSpace=wrap;html=1;" parent="1" vertex="1">
          <mxGeometry x="545" y="380" width="90" height="90" as="geometry" />
        </mxCell>
        <mxCell id="MzTdHwhMegrAW5zrQK32-19" value="aprover" style="text;strokeColor=none;fillColor=none;align=left;verticalAlign=middle;spacingLeft=4;spacingRight=4;overflow=hidden;points=[[0,0.5],[1,0.5]];portConstraint=eastwest;rotatable=0;whiteSpace=wrap;html=1;" parent="MzTdHwhMegrAW5zrQK32-18" vertex="1">
          <mxGeometry y="30" width="90" height="30" as="geometry" />
        </mxCell>
        <mxCell id="MzTdHwhMegrAW5zrQK32-20" value="relases" style="text;strokeColor=none;fillColor=none;align=left;verticalAlign=middle;spacingLeft=4;spacingRight=4;overflow=hidden;points=[[0,0.5],[1,0.5]];portConstraint=eastwest;rotatable=0;whiteSpace=wrap;html=1;" parent="MzTdHwhMegrAW5zrQK32-18" vertex="1">
          <mxGeometry y="60" width="90" height="30" as="geometry" />
        </mxCell>
        <mxCell id="MzTdHwhMegrAW5zrQK32-24" value="" style="endArrow=classic;startArrow=classic;html=1;rounded=0;exitX=1;exitY=0.5;exitDx=0;exitDy=0;" parent="1" edge="1" source="MzTdHwhMegrAW5zrQK32-8">
          <mxGeometry width="50" height="50" relative="1" as="geometry">
            <mxPoint x="590" y="567.5" as="sourcePoint" />
            <mxPoint x="539" y="430" as="targetPoint" />
          </mxGeometry>
        </mxCell>
        <mxCell id="MzTdHwhMegrAW5zrQK32-26" value="build" style="swimlane;fontStyle=0;childLayout=stackLayout;horizontal=1;startSize=30;horizontalStack=0;resizeParent=1;resizeParentMax=0;resizeLast=0;collapsible=1;marginBottom=0;whiteSpace=wrap;html=1;" parent="1" vertex="1">
          <mxGeometry x="177.5" y="385" width="90" height="120" as="geometry" />
        </mxCell>
        <mxCell id="MzTdHwhMegrAW5zrQK32-27" value="packege" style="text;strokeColor=none;fillColor=none;align=left;verticalAlign=middle;spacingLeft=4;spacingRight=4;overflow=hidden;points=[[0,0.5],[1,0.5]];portConstraint=eastwest;rotatable=0;whiteSpace=wrap;html=1;" parent="MzTdHwhMegrAW5zrQK32-26" vertex="1">
          <mxGeometry y="30" width="90" height="30" as="geometry" />
        </mxCell>
        <mxCell id="MzTdHwhMegrAW5zrQK32-28" value="test" style="text;strokeColor=none;fillColor=none;align=left;verticalAlign=middle;spacingLeft=4;spacingRight=4;overflow=hidden;points=[[0,0.5],[1,0.5]];portConstraint=eastwest;rotatable=0;whiteSpace=wrap;html=1;" parent="MzTdHwhMegrAW5zrQK32-26" vertex="1">
          <mxGeometry y="60" width="90" height="30" as="geometry" />
        </mxCell>
        <mxCell id="MzTdHwhMegrAW5zrQK32-29" value="sonar" style="text;strokeColor=none;fillColor=none;align=left;verticalAlign=middle;spacingLeft=4;spacingRight=4;overflow=hidden;points=[[0,0.5],[1,0.5]];portConstraint=eastwest;rotatable=0;whiteSpace=wrap;html=1;" parent="MzTdHwhMegrAW5zrQK32-26" vertex="1">
          <mxGeometry y="90" width="90" height="30" as="geometry" />
        </mxCell>
        <mxCell id="MzTdHwhMegrAW5zrQK32-30" value="" style="endArrow=classic;startArrow=classic;html=1;rounded=0;entryX=0.5;entryY=1;entryDx=0;entryDy=0;" parent="1" edge="1" target="MzTdHwhMegrAW5zrQK32-5" source="MzTdHwhMegrAW5zrQK32-26">
          <mxGeometry width="50" height="50" relative="1" as="geometry">
            <mxPoint x="230" y="365" as="sourcePoint" />
            <mxPoint x="230" y="360" as="targetPoint" />
          </mxGeometry>
        </mxCell>
        <mxCell id="MzTdHwhMegrAW5zrQK32-31" value="docker" style="swimlane;fontStyle=0;childLayout=stackLayout;horizontal=1;startSize=30;horizontalStack=0;resizeParent=1;resizeParentMax=0;resizeLast=0;collapsible=1;marginBottom=0;whiteSpace=wrap;html=1;" parent="1" vertex="1">
          <mxGeometry x="550" y="237.5" width="80" height="120" as="geometry" />
        </mxCell>
        <mxCell id="MzTdHwhMegrAW5zrQK32-32" value="build" style="text;strokeColor=none;fillColor=none;align=left;verticalAlign=middle;spacingLeft=4;spacingRight=4;overflow=hidden;points=[[0,0.5],[1,0.5]];portConstraint=eastwest;rotatable=0;whiteSpace=wrap;html=1;" parent="MzTdHwhMegrAW5zrQK32-31" vertex="1">
          <mxGeometry y="30" width="80" height="30" as="geometry" />
        </mxCell>
        <mxCell id="MzTdHwhMegrAW5zrQK32-33" value="tag" style="text;strokeColor=none;fillColor=none;align=left;verticalAlign=middle;spacingLeft=4;spacingRight=4;overflow=hidden;points=[[0,0.5],[1,0.5]];portConstraint=eastwest;rotatable=0;whiteSpace=wrap;html=1;" parent="MzTdHwhMegrAW5zrQK32-31" vertex="1">
          <mxGeometry y="60" width="80" height="30" as="geometry" />
        </mxCell>
        <mxCell id="MzTdHwhMegrAW5zrQK32-34" value="push" style="text;strokeColor=none;fillColor=none;align=left;verticalAlign=middle;spacingLeft=4;spacingRight=4;overflow=hidden;points=[[0,0.5],[1,0.5]];portConstraint=eastwest;rotatable=0;whiteSpace=wrap;html=1;" parent="MzTdHwhMegrAW5zrQK32-31" vertex="1">
          <mxGeometry y="90" width="80" height="30" as="geometry" />
        </mxCell>
        <mxCell id="MzTdHwhMegrAW5zrQK32-35" value="" style="endArrow=classic;startArrow=classic;html=1;rounded=0;exitX=1;exitY=0.5;exitDx=0;exitDy=0;" parent="1" edge="1" source="MzTdHwhMegrAW5zrQK32-7">
          <mxGeometry width="50" height="50" relative="1" as="geometry">
            <mxPoint x="600" y="330" as="sourcePoint" />
            <mxPoint x="549" y="300" as="targetPoint" />
          </mxGeometry>
        </mxCell>
        <mxCell id="MzTdHwhMegrAW5zrQK32-36" value="CI" style="text;html=1;align=center;verticalAlign=middle;whiteSpace=wrap;rounded=0;fillColor=#f5f5f5;strokeColor=#666666;fontColor=#333333;" parent="1" vertex="1">
          <mxGeometry x="340" y="60" width="130" height="50" as="geometry" />
        </mxCell>
        <mxCell id="MzTdHwhMegrAW5zrQK32-38" value="" style="ellipse;shape=cloud;whiteSpace=wrap;html=1;strokeColor=default;align=center;verticalAlign=middle;fontFamily=Helvetica;fontSize=12;fontColor=default;fontStyle=0;fillColor=default;" parent="1" vertex="1">
          <mxGeometry x="10" y="450" width="120" height="80" as="geometry" />
        </mxCell>
        <mxCell id="MzTdHwhMegrAW5zrQK32-39" value="SONAR" style="text;html=1;align=center;verticalAlign=middle;whiteSpace=wrap;rounded=0;fontFamily=Helvetica;fontSize=12;fontColor=default;fontStyle=0;" parent="1" vertex="1">
          <mxGeometry x="40" y="475" width="60" height="30" as="geometry" />
        </mxCell>
        <mxCell id="MzTdHwhMegrAW5zrQK32-41" value="" style="endArrow=none;dashed=1;html=1;dashPattern=1 3;strokeWidth=2;rounded=0;fontFamily=Helvetica;fontSize=12;fontColor=default;fontStyle=0;entryX=-0.028;entryY=0.733;entryDx=0;entryDy=0;entryPerimeter=0;exitX=0.96;exitY=0.7;exitDx=0;exitDy=0;exitPerimeter=0;" parent="1" edge="1" target="MzTdHwhMegrAW5zrQK32-28" source="MzTdHwhMegrAW5zrQK32-38">
          <mxGeometry width="50" height="50" relative="1" as="geometry">
            <mxPoint x="190" y="600" as="sourcePoint" />
            <mxPoint x="190" y="600" as="targetPoint" />
            <Array as="points" />
          </mxGeometry>
        </mxCell>
        <mxCell id="MzTdHwhMegrAW5zrQK32-42" value="ArgoCD" style="text;html=1;align=center;verticalAlign=middle;whiteSpace=wrap;rounded=0;fontFamily=Helvetica;fontSize=12;fontColor=default;fontStyle=0;" parent="1" vertex="1">
          <mxGeometry x="440" y="640" width="135" height="60" as="geometry" />
        </mxCell>
      </root>
    </mxGraphModel>
  </diagram>
</mxfile>
